<svg width="683" height="800" viewBox="0 0 683 800" fill="none" xmlns="http://www.w3.org/2000/svg">
<path d="M141.739 187.86C267.622 94.8176 445.613 99.9042 566.417 208.677C704.504 333.011 715.605 545.656 591.312 683.698C467.017 821.738 254.377 832.925 116.289 708.593C-11.0237 593.96 -30.428 404.078 64.9136 266.954" stroke="#37405B" stroke-width="9.59979"/>
<path fill-rule="evenodd" clip-rule="evenodd" d="M343.669 156.336C511.121 156.336 646.857 292.073 646.857 459.524C646.857 626.975 511.121 762.713 343.669 762.713C176.218 762.713 40.4814 626.975 40.4814 459.524C40.4814 292.073 176.218 156.336 343.669 156.336Z" stroke="#37405B" stroke-width="1.27977"/>
<path d="M242.667 732.327C131.819 691.309 52.8653 584.629 52.8653 459.524C52.8653 298.899 183.044 168.719 343.669 168.719C504.234 168.719 634.473 298.899 634.473 459.524C634.473 620.149 504.234 750.329 343.669 750.329C308.149 750.329 274.14 743.987 242.667 732.327Z" stroke="#617A5B" stroke-width="3.19981"/>
<path fill-rule="evenodd" clip-rule="evenodd" d="M343.669 144.737C517.524 144.737 658.455 285.669 658.455 459.524C658.455 633.378 517.524 774.311 343.669 774.311C169.815 774.311 28.8832 633.378 28.8832 459.524C28.8832 285.669 169.815 144.737 343.669 144.737Z" stroke="#617A5B" stroke-width="5.11984"/>
<path d="M251.849 409.868C244.238 423.883 239.767 439.891 239.345 456.866H259.521C259.883 443.576 263.448 431.012 269.367 419.957L251.849 409.868Z" fill="#37405B"/>
<path d="M434.704 509.239C442.376 495.225 446.846 479.217 447.269 462.242H427.153C426.73 475.532 423.166 488.097 417.246 499.151L434.704 509.239Z" fill="#37405B"/>
<path d="M346.026 355.562V375.677C359.315 376.1 371.88 379.664 382.935 385.585L393.023 368.066C379.008 360.455 363 355.984 346.026 355.562Z" fill="#37405B"/>
<path d="M417.246 419.957C423.227 431.012 426.73 443.576 427.153 456.866H447.269C446.846 439.891 442.376 423.883 434.765 409.868L417.246 419.957Z" fill="#37405B"/>
<path d="M387.586 388.303C398.52 395.129 407.762 404.371 414.588 415.305L432.046 405.217C423.468 391.202 411.688 379.362 397.674 370.784L387.586 388.303Z" fill="#37405B"/>
<path d="M340.649 355.562C323.614 355.984 307.666 360.455 293.591 368.066L298.545 376.644C311.11 369.758 325.426 365.71 340.649 365.227V355.562Z" fill="#617A5B"/>
<path d="M293.652 550.981C307.666 558.593 323.675 563.063 340.649 563.486V553.76C325.426 553.277 311.17 549.23 298.605 542.404L293.652 550.981Z" fill="#617A5B"/>
<path d="M346.026 563.486C363 563.063 378.947 558.593 392.962 550.982L388.191 542.706C375.565 549.471 361.248 553.398 346.026 553.821V563.486Z" fill="#617A5B"/>
<path d="M293.893 379.362L288.94 370.784C274.986 379.362 263.145 391.202 254.567 405.217L263.206 410.23C270.938 397.666 281.449 387.094 293.893 379.362Z" fill="#617A5B"/>
<path d="M263.267 508.877L254.628 513.891C263.206 527.845 274.986 539.685 289 548.263L293.953 539.685C281.51 531.953 270.938 521.382 263.267 508.877Z" fill="#617A5B"/>
<path d="M392.841 539.987L397.614 548.264C411.629 539.685 423.468 527.845 432.046 513.891L423.891 509.18C416.098 521.684 405.467 532.316 392.841 539.987Z" fill="#617A5B"/>
<path d="M239.345 462.242C239.767 479.217 244.238 495.225 251.909 509.239L260.548 504.226C253.782 491.661 249.795 477.405 249.372 462.242H239.345Z" fill="#617A5B"/>
<path d="M249.372 274.856C239.828 274.856 230.887 279.991 226.115 288.267L134.355 447.2C129.583 455.476 129.583 465.746 134.355 474.022L226.115 632.955C230.887 641.231 239.828 646.366 249.372 646.366H432.892C442.436 646.366 451.316 641.231 456.089 632.955L547.909 474.022C552.681 465.746 552.681 455.476 547.909 447.2L456.089 288.267C451.316 279.991 442.436 274.856 432.892 274.856H249.372ZM432.892 658.93H249.372C235.297 658.93 222.249 651.44 215.241 639.237L123.482 480.304C116.475 468.162 116.475 453.06 123.482 440.918L215.241 281.985C222.249 269.842 235.297 262.292 249.372 262.292H432.892C446.906 262.292 460.015 269.842 467.022 281.985L558.782 440.918C565.789 453.06 565.789 468.162 558.782 480.304L467.022 639.237C460.015 651.44 446.906 658.93 432.892 658.93Z" fill="#617A5B" stroke="#617A5B" stroke-width="0.288005"/>
<path d="M340.287 284.28H344.515V79.0139H340.287V284.28Z" fill="#37405B"/>
<path d="M344.515 725.501V616.584H340.287V725.501H344.515Z" fill="#37405B"/>
<path d="M33.1118 461.095H246.714V456.927H33.1118V461.095Z" fill="#37405B"/>
<path d="M167.278 0V4.22854H171.506V0H167.278ZM167.278 6.28243V10.511H171.506V6.28243H167.278ZM167.278 12.5649V16.7934H171.506V12.5649H167.278ZM167.278 18.9077V23.0758H171.506V18.9077H167.278ZM167.278 25.1901V29.3583H171.506V25.1901H167.278ZM167.278 31.4726V35.6407H171.506V31.4726H167.278ZM167.278 37.755V41.9232H171.506V37.755H167.278ZM167.278 44.0374V48.266H171.506V44.0374H167.278ZM167.278 50.3198V54.5484H171.506V50.3198H167.278ZM167.278 56.6023V60.8307H171.506V56.6023H167.278ZM167.278 62.9455V67.1131H171.506V62.9455H167.278ZM167.278 69.2279V73.3955H171.506V69.2279H167.278ZM167.278 75.5104V79.678H171.506V75.5104H167.278ZM167.278 81.7928V85.9604H171.506V81.7928H167.278ZM167.278 88.0752V92.3034H171.506V88.0752H167.278ZM167.278 94.3576V98.5858H171.506V94.3576H167.278ZM167.278 100.64V104.868H171.506V100.64H167.278ZM167.278 106.982V111.151H171.506V106.982H167.278ZM167.278 113.265V117.433H171.506V113.265H167.278ZM167.278 119.547V123.716H171.506V119.547H167.278ZM167.278 125.83V129.998H171.506V125.83H167.278ZM167.278 132.112V136.28H171.506V132.112H167.278ZM167.278 138.394V142.623H171.506V138.394H167.278ZM167.278 144.677V148.906H171.506V144.677H167.278ZM167.278 150.959V155.188H171.506V150.959H167.278ZM167.278 157.302V161.471H171.506V157.302H167.278ZM167.278 163.585V167.753H171.506V163.585H167.278ZM167.278 169.867V174.036H171.506V169.867H167.278ZM167.278 176.15V180.318H171.506V176.15H167.278ZM167.278 182.432V186.661H171.506V182.432H167.278ZM167.278 188.714V192.943H171.506V188.714H167.278ZM167.278 194.997V199.226H171.506V194.997H167.278ZM167.278 201.34V205.508H171.506V201.34H167.278ZM167.278 207.622V211.791H171.506V207.622H167.278ZM167.278 213.905V218.073H171.506V213.905H167.278ZM167.278 220.187V224.356H171.506V220.187H167.278ZM167.278 226.47V230.699H171.506V226.47H167.278ZM167.278 232.752V236.981H171.506V232.752H167.278ZM167.278 239.034V243.263H171.506V239.034H167.278ZM167.278 245.317V249.546H171.506V245.317H167.278ZM167.278 251.66V255.828H171.506V251.66H167.278ZM167.278 257.942V262.111H171.506V257.942H167.278ZM167.278 264.225V266.339H171.506V264.225H167.278Z" fill="#617A5B"/>
<path d="M404.017 459.524C404.017 492.808 376.954 519.871 343.669 519.871C310.324 519.871 283.322 492.808 283.322 459.524C283.322 426.178 310.324 399.176 343.669 399.176C376.954 399.176 404.017 426.178 404.017 459.524Z" fill="#37405B" stroke="#617A5B" stroke-width="0.288005"/>
<path d="M463.398 465.746C463.337 467.135 463.217 468.524 463.096 469.914L465.21 470.096C465.331 468.646 465.392 467.256 465.512 465.867L463.398 465.746ZM462.915 471.968C462.794 473.358 462.613 474.747 462.432 476.076L464.485 476.378C464.666 474.989 464.848 473.599 465.029 472.149L462.915 471.968ZM462.13 478.129C461.888 479.519 461.646 480.908 461.404 482.237L463.459 482.66C463.761 481.271 464.002 479.881 464.183 478.492L462.13 478.129ZM460.982 484.291C460.74 485.62 460.377 487.01 460.075 488.339L462.13 488.822C462.432 487.493 462.733 486.103 463.035 484.714L460.982 484.291ZM459.532 490.332C459.23 491.661 458.807 492.99 458.444 494.319L460.438 494.923C460.861 493.594 461.223 492.265 461.586 490.876L459.532 490.332ZM457.78 496.313C457.357 497.641 456.935 498.97 456.451 500.299L458.444 500.964C458.927 499.634 459.351 498.306 459.773 496.977L457.78 496.313ZM455.726 502.232C455.243 503.561 454.699 504.829 454.156 506.099L456.089 506.884C456.632 505.615 457.176 504.286 457.659 502.957L455.726 502.232ZM453.37 508.032C452.766 509.3 452.223 510.568 451.618 511.777L453.491 512.683C454.095 511.414 454.699 510.146 455.243 508.877L453.37 508.032ZM450.652 513.649C450.048 514.918 449.383 516.126 448.719 517.335L450.531 518.361C451.256 517.093 451.92 515.884 452.525 514.616L450.652 513.649ZM447.691 519.146C447.027 520.355 446.303 521.563 445.577 522.711L447.33 523.858C448.115 522.65 448.839 521.442 449.504 520.173L447.691 519.146ZM444.43 524.463C443.705 525.67 442.92 526.818 442.134 527.966L443.826 529.114C444.672 527.966 445.457 526.818 446.182 525.61L444.43 524.463ZM440.926 529.658C440.141 530.745 439.295 531.892 438.449 532.98L440.08 534.249C440.987 533.161 441.832 532.013 442.618 530.866L440.926 529.658ZM437.12 534.611C436.275 535.699 435.369 536.725 434.463 537.813L436.094 539.142C437 538.115 437.906 537.028 438.751 535.94L437.12 534.611ZM433.134 539.383C432.167 540.41 431.261 541.377 430.294 542.404L431.805 543.854C432.771 542.826 433.738 541.799 434.704 540.773L433.134 539.383ZM428.844 543.914C427.878 544.88 426.851 545.847 425.884 546.814L427.334 548.323C428.301 547.357 429.328 546.39 430.355 545.364L428.844 543.914ZM424.314 548.203C423.348 549.169 422.26 550.076 421.233 550.982L422.562 552.552C423.649 551.646 424.736 550.68 425.764 549.773L424.314 548.203ZM419.602 552.311C418.575 553.157 417.488 554.002 416.4 554.847L417.669 556.539C418.756 555.693 419.843 554.788 420.931 553.881L419.602 552.311ZM414.709 556.116C413.622 556.902 412.474 557.747 411.327 558.533L412.534 560.224C413.682 559.439 414.83 558.654 415.978 557.808L414.709 556.116ZM409.574 559.681C408.427 560.405 407.279 561.19 406.131 561.916L407.219 563.667C408.427 562.942 409.574 562.217 410.783 561.432L409.574 559.681ZM404.319 562.942C403.111 563.667 401.903 564.332 400.694 564.996L401.722 566.869C402.929 566.144 404.198 565.48 405.406 564.754L404.319 562.942ZM398.882 565.963C397.674 566.627 396.405 567.231 395.198 567.835L396.043 569.708C397.372 569.104 398.58 568.5 399.849 567.835L398.882 565.963ZM393.264 568.681C392.056 569.286 390.788 569.829 389.519 570.373L390.304 572.306C391.573 571.762 392.902 571.158 394.17 570.614L393.264 568.681ZM387.586 571.097C386.257 571.641 384.988 572.124 383.659 572.607L384.384 574.54C385.713 574.057 387.042 573.574 388.311 573.091L387.586 571.097ZM381.726 573.272C380.398 573.695 379.069 574.118 377.739 574.481L378.343 576.534C379.672 576.112 381.062 575.688 382.39 575.266L381.726 573.272ZM375.746 575.084C374.417 575.447 373.088 575.809 371.699 576.112L372.182 578.165C373.571 577.802 374.961 577.501 376.29 577.078L375.746 575.084ZM369.705 576.595C368.376 576.897 366.987 577.138 365.597 577.44L366.02 579.494C367.409 579.192 368.799 578.95 370.128 578.648L369.705 576.595ZM363.604 577.743C362.214 577.984 360.825 578.226 359.496 578.407L359.738 580.461C361.127 580.279 362.516 580.098 363.906 579.857L363.604 577.743ZM357.382 578.648C356.053 578.769 354.664 578.95 353.274 579.011L353.455 581.125C354.845 581.005 356.234 580.883 357.623 580.702L357.382 578.648ZM351.221 579.192C349.831 579.252 348.442 579.313 347.052 579.374L347.113 581.488C348.502 581.427 349.952 581.367 351.341 581.307L351.221 579.192ZM344.938 579.433C344.515 579.433 344.092 579.433 343.669 579.433C342.703 579.433 341.736 579.433 340.83 579.374L340.77 581.488C341.736 581.488 342.703 581.488 343.669 581.488C344.092 581.488 344.515 581.488 344.998 581.488L344.938 579.433ZM338.716 579.313C337.326 579.252 335.937 579.192 334.608 579.071L334.427 581.186C335.816 581.307 337.206 581.367 338.655 581.427L338.716 579.313ZM332.494 578.89C331.104 578.769 329.775 578.648 328.386 578.467L328.144 580.521C329.534 580.702 330.923 580.883 332.313 581.005L332.494 578.89ZM326.332 578.165C324.943 577.984 323.554 577.743 322.225 577.501L321.862 579.555C323.251 579.796 324.641 580.038 326.03 580.279L326.332 578.165ZM320.17 577.138C318.842 576.836 317.452 576.534 316.123 576.232L315.64 578.286C317.03 578.588 318.358 578.89 319.748 579.192L320.17 577.138ZM314.069 575.749C312.74 575.386 311.411 575.024 310.082 574.662L309.478 576.655C310.868 577.078 312.196 577.44 313.586 577.802L314.069 575.749ZM308.089 574.057C306.76 573.635 305.431 573.212 304.163 572.728L303.437 574.722C304.767 575.205 306.096 575.628 307.485 576.051L308.089 574.057ZM302.169 572.064C300.84 571.581 299.572 571.037 298.303 570.554L297.517 572.487C298.786 573.031 300.115 573.514 301.444 573.997L302.169 572.064ZM296.37 569.708C295.101 569.164 293.833 568.621 292.564 568.016L291.658 569.95C292.927 570.493 294.255 571.097 295.524 571.641L296.37 569.708ZM290.691 567.111C289.423 566.507 288.215 565.842 287.007 565.238L285.979 567.05C287.248 567.714 288.517 568.379 289.785 568.983L290.691 567.111ZM285.134 564.211C283.926 563.547 282.778 562.821 281.569 562.097L280.482 563.909C281.691 564.634 282.899 565.359 284.167 566.024L285.134 564.211ZM279.818 561.009C278.61 560.285 277.462 559.499 276.315 558.714L275.167 560.466C276.315 561.251 277.462 562.036 278.67 562.821L279.818 561.009ZM274.623 557.566C273.475 556.78 272.327 555.935 271.24 555.09L269.972 556.78C271.119 557.626 272.267 558.472 273.415 559.257L274.623 557.566ZM269.609 553.821C268.522 552.975 267.434 552.069 266.407 551.223L265.018 552.794C266.105 553.7 267.193 554.606 268.28 555.452L269.609 553.821ZM264.776 549.834C263.75 548.928 262.722 548.021 261.695 547.055L260.306 548.565C261.333 549.532 262.36 550.498 263.448 551.404L264.776 549.834ZM260.186 545.605C259.219 544.639 258.252 543.672 257.286 542.706L255.776 544.156C256.742 545.122 257.769 546.149 258.736 547.116L260.186 545.605ZM255.836 541.195C254.93 540.168 253.963 539.142 253.057 538.054L251.486 539.444C252.393 540.531 253.36 541.558 254.326 542.585L255.836 541.195ZM251.729 536.484C250.822 535.456 249.976 534.369 249.131 533.282L247.439 534.551C248.345 535.699 249.191 536.786 250.098 537.873L251.729 536.484ZM247.862 531.651C247.017 530.504 246.171 529.416 245.386 528.268L243.694 529.476C244.479 530.624 245.325 531.772 246.171 532.859L247.862 531.651ZM244.238 526.577C243.452 525.429 242.728 524.281 241.942 523.073L240.19 524.221C240.915 525.368 241.7 526.577 242.485 527.725L244.238 526.577ZM240.854 521.321C240.19 520.113 239.465 518.905 238.801 517.696L236.989 518.724C237.653 519.992 238.378 521.201 239.103 522.408L240.854 521.321ZM237.834 515.884C237.17 514.676 236.505 513.468 235.902 512.199L234.028 513.106C234.633 514.375 235.297 515.643 235.961 516.911L237.834 515.884ZM234.995 510.327C234.452 509.119 233.847 507.85 233.304 506.582L231.371 507.367C231.975 508.696 232.519 509.965 233.123 511.233L234.995 510.327ZM232.519 504.649C232.035 503.38 231.492 502.051 231.008 500.782L229.076 501.508C229.559 502.837 230.042 504.105 230.585 505.434L232.519 504.649ZM230.344 498.789C229.861 497.52 229.438 496.191 229.076 494.863L227.021 495.467C227.444 496.856 227.867 498.185 228.35 499.514L230.344 498.789ZM228.471 492.869C228.048 491.54 227.686 490.211 227.384 488.882L225.33 489.365C225.692 490.755 226.055 492.084 226.417 493.473L228.471 492.869ZM226.9 486.828C226.538 485.499 226.297 484.17 225.995 482.781L223.94 483.204C224.242 484.594 224.545 485.922 224.847 487.312L226.9 486.828ZM225.632 480.727C225.39 479.398 225.149 478.009 224.968 476.62L222.914 476.922C223.095 478.311 223.337 479.7 223.578 481.089L225.632 480.727ZM224.666 474.565C224.484 473.176 224.364 471.847 224.242 470.457L222.128 470.639C222.309 472.029 222.43 473.417 222.611 474.807L224.666 474.565ZM224.061 468.343C223.94 467.015 223.88 465.625 223.82 464.236L221.766 464.296C221.826 465.746 221.887 467.135 222.007 468.524L224.061 468.343ZM223.759 462.122C223.759 461.276 223.759 460.369 223.759 459.524C223.759 458.98 223.759 458.497 223.759 458.014L221.645 457.953C221.645 458.497 221.645 458.98 221.645 459.524C221.645 460.43 221.645 461.276 221.705 462.182L223.759 462.122ZM223.82 455.9C223.82 454.51 223.88 453.121 224.001 451.731L221.887 451.61C221.826 453 221.766 454.45 221.705 455.839L223.82 455.9ZM224.122 449.677C224.242 448.288 224.424 446.898 224.545 445.569L222.491 445.328C222.309 446.717 222.189 448.107 222.068 449.496L224.122 449.677ZM224.786 443.516C224.968 442.126 225.209 440.737 225.451 439.408L223.337 439.045C223.155 440.435 222.914 441.824 222.733 443.214L224.786 443.516ZM225.813 437.354C226.055 435.964 226.357 434.635 226.659 433.246L224.605 432.823C224.303 434.152 224.001 435.542 223.759 436.931L225.813 437.354ZM227.082 431.253C227.444 429.864 227.807 428.535 228.169 427.206L226.115 426.662C225.753 427.991 225.39 429.381 225.088 430.769L227.082 431.253ZM228.713 425.212C229.135 423.883 229.559 422.554 229.981 421.285L227.988 420.561C227.565 421.95 227.142 423.279 226.719 424.608L228.713 425.212ZM230.646 419.292C231.129 417.963 231.612 416.695 232.156 415.366L230.163 414.641C229.679 415.909 229.135 417.238 228.713 418.567L230.646 419.292ZM232.941 413.433C233.425 412.164 234.028 410.895 234.572 409.627L232.7 408.781C232.095 410.049 231.552 411.318 231.008 412.647L232.941 413.433ZM235.478 407.754C236.083 406.485 236.687 405.278 237.351 404.009L235.478 403.042C234.814 404.311 234.21 405.58 233.606 406.848L235.478 407.754ZM238.318 402.197C238.982 400.988 239.647 399.78 240.371 398.572L238.559 397.485C237.834 398.693 237.17 399.961 236.445 401.17L238.318 402.197ZM241.459 396.76C242.184 395.612 242.909 394.464 243.694 393.256L241.942 392.108C241.157 393.317 240.371 394.464 239.647 395.673L241.459 396.76ZM244.842 391.565C245.627 390.417 246.473 389.269 247.258 388.182L245.567 386.913C244.721 388.061 243.935 389.209 243.15 390.356L244.842 391.565ZM248.526 386.491C249.372 385.404 250.218 384.315 251.124 383.289L249.493 381.899C248.587 382.987 247.741 384.134 246.836 385.222L248.526 386.491ZM252.453 381.658C253.36 380.631 254.265 379.604 255.232 378.577L253.662 377.127C252.695 378.154 251.788 379.241 250.883 380.329L252.453 381.658ZM256.622 377.006C257.588 376.04 258.555 375.013 259.521 374.046L258.071 372.596C257.044 373.563 256.078 374.59 255.111 375.617L256.622 377.006ZM261.031 372.596C262.058 371.691 263.024 370.724 264.112 369.818L262.722 368.247C261.635 369.153 260.608 370.12 259.581 371.087L261.031 372.596ZM265.683 368.429C266.71 367.522 267.797 366.677 268.884 365.77L267.555 364.139C266.468 365.046 265.381 365.952 264.293 366.858L265.683 368.429ZM270.515 364.502C271.603 363.656 272.69 362.871 273.838 362.025L272.569 360.334C271.481 361.179 270.334 361.965 269.186 362.871L270.515 364.502ZM275.529 360.817C276.677 360.032 277.824 359.307 278.972 358.522L277.824 356.77C276.677 357.555 275.469 358.341 274.321 359.126L275.529 360.817ZM280.724 357.434C281.872 356.71 283.08 355.984 284.288 355.32L283.261 353.508C282.053 354.172 280.845 354.897 279.636 355.622L280.724 357.434ZM286.101 354.293C287.308 353.629 288.517 352.964 289.785 352.36L288.819 350.487C287.551 351.152 286.342 351.816 285.074 352.481L286.101 354.293ZM291.658 351.454C292.866 350.85 294.134 350.306 295.403 349.702L294.558 347.829C293.289 348.373 291.96 348.977 290.691 349.582L291.658 351.454ZM297.276 348.917C298.544 348.373 299.873 347.829 301.142 347.346L300.417 345.413C299.088 345.896 297.759 346.44 296.491 346.984L297.276 348.917ZM303.075 346.621C304.404 346.198 305.733 345.715 307.001 345.292L306.398 343.299C305.068 343.722 303.679 344.205 302.41 344.689L303.075 346.621ZM308.995 344.689C310.324 344.265 311.653 343.903 312.982 343.541L312.499 341.547C311.109 341.91 309.78 342.272 308.391 342.695L308.995 344.689ZM315.036 343.057C316.365 342.695 317.694 342.393 319.083 342.151L318.661 340.097C317.271 340.338 315.882 340.701 314.553 341.003L315.036 343.057ZM321.137 341.728C322.466 341.486 323.856 341.245 325.185 341.003L324.882 338.95C323.493 339.191 322.104 339.372 320.714 339.674L321.137 341.728ZM327.299 340.701C328.627 340.52 330.017 340.399 331.406 340.218L331.165 338.164C329.775 338.285 328.386 338.466 326.997 338.648L327.299 340.701ZM333.461 340.037C334.849 339.916 336.239 339.855 337.628 339.735L337.508 337.681C336.118 337.741 334.668 337.802 333.279 337.922L333.461 340.037ZM339.683 339.674C341.011 339.614 342.34 339.614 343.669 339.614H343.85V337.5H343.669C342.28 337.5 340.951 337.56 339.622 337.56L339.683 339.674ZM345.904 339.614C347.294 339.674 348.683 339.735 350.073 339.795L350.193 337.681C348.804 337.62 347.354 337.56 345.965 337.56L345.904 339.614ZM352.126 339.916C353.516 339.977 354.905 340.097 356.295 340.279L356.536 338.164C355.086 338.043 353.697 337.922 352.308 337.802L352.126 339.916ZM358.348 340.52C359.738 340.701 361.127 340.882 362.456 341.064L362.819 339.01C361.429 338.768 360.04 338.587 358.59 338.406L358.348 340.52ZM364.51 341.426C365.9 341.668 367.228 341.91 368.618 342.212L369.04 340.157C367.651 339.855 366.262 339.614 364.873 339.372L364.51 341.426ZM370.612 342.634C372 342.997 373.33 343.299 374.659 343.661L375.202 341.608C373.874 341.245 372.484 340.943 371.095 340.641L370.612 342.634ZM376.652 344.205C377.981 344.567 379.31 344.99 380.639 345.413L381.303 343.419C379.974 342.997 378.585 342.574 377.256 342.212L376.652 344.205ZM382.633 346.077C383.962 346.561 385.23 346.984 386.559 347.527L387.284 345.534C385.955 345.05 384.626 344.567 383.297 344.084L382.633 346.077ZM388.492 348.252C389.76 348.796 391.029 349.339 392.298 349.884L393.143 348.01C391.875 347.407 390.606 346.863 389.277 346.32L388.492 348.252ZM394.231 350.789C395.499 351.333 396.707 351.937 397.976 352.602L398.882 350.729C397.674 350.065 396.405 349.46 395.076 348.856L394.231 350.789ZM399.788 353.568C401.057 354.172 402.265 354.897 403.473 355.562L404.5 353.749C403.292 353.024 402.024 352.36 400.815 351.696L399.788 353.568ZM405.225 356.589C406.433 357.313 407.641 358.039 408.789 358.824L409.937 357.072C408.729 356.286 407.52 355.562 406.312 354.836L405.225 356.589ZM410.481 359.972C411.689 360.757 412.776 361.542 413.924 362.327L415.132 360.636C413.984 359.851 412.836 359.005 411.689 358.22L410.481 359.972ZM415.615 363.596C416.703 364.441 417.79 365.287 418.877 366.133L420.206 364.502C419.119 363.596 417.971 362.75 416.884 361.905L415.615 363.596ZM420.508 367.462C421.535 368.368 422.622 369.275 423.649 370.18L425.039 368.61C423.951 367.703 422.924 366.737 421.837 365.831L420.508 367.462ZM425.16 371.57C426.186 372.537 427.153 373.503 428.18 374.47L429.63 372.959C428.663 371.993 427.637 371.026 426.61 370.06L425.16 371.57ZM429.63 375.919C430.596 376.946 431.563 377.913 432.469 378.939L434.039 377.55C433.073 376.523 432.107 375.496 431.14 374.47L429.63 375.919ZM433.858 380.51C434.765 381.537 435.67 382.625 436.516 383.712L438.147 382.383C437.241 381.235 436.335 380.208 435.429 379.121L433.858 380.51ZM437.846 385.282C438.691 386.37 439.537 387.518 440.382 388.605L442.013 387.336C441.228 386.249 440.382 385.101 439.477 384.014L437.846 385.282ZM441.591 390.297C442.376 391.444 443.161 392.531 443.886 393.739L445.638 392.592C444.913 391.384 444.068 390.236 443.282 389.088L441.591 390.297ZM445.034 395.431C445.759 396.639 446.484 397.787 447.208 398.995L449.021 397.968C448.296 396.699 447.571 395.551 446.786 394.344L445.034 395.431ZM448.235 400.807C448.9 402.016 449.565 403.223 450.168 404.432L452.042 403.465C451.437 402.257 450.712 400.988 450.048 399.78L448.235 400.807ZM451.135 406.304C451.739 407.513 452.343 408.781 452.887 410.049L454.82 409.204C454.216 407.875 453.612 406.606 453.008 405.338L451.135 406.304ZM453.732 411.922C454.276 413.191 454.82 414.459 455.304 415.788L457.296 415.003C456.753 413.674 456.209 412.406 455.666 411.077L453.732 411.922ZM456.089 417.721C456.572 418.99 456.994 420.319 457.478 421.648L459.411 420.983C458.988 419.654 458.505 418.326 458.022 416.997L456.089 417.721ZM458.082 423.581C458.505 424.91 458.868 426.239 459.29 427.568L461.284 427.024C460.921 425.695 460.499 424.306 460.075 422.977L458.082 423.581ZM459.773 429.622C460.136 430.951 460.438 432.28 460.74 433.669L462.794 433.186C462.492 431.797 462.189 430.468 461.828 429.078L459.773 429.622ZM461.163 435.663C461.465 437.052 461.706 438.381 461.948 439.771L464.002 439.408C463.761 438.019 463.519 436.629 463.217 435.24L461.163 435.663ZM462.25 441.824C462.492 443.214 462.613 444.543 462.794 445.932L464.908 445.69C464.727 444.301 464.546 442.912 464.364 441.522L462.25 441.824ZM463.035 447.986C463.156 449.375 463.277 450.764 463.337 452.154L465.451 452.033C465.331 450.583 465.21 449.194 465.09 447.805L463.035 447.986ZM463.459 454.208C463.519 455.598 463.519 456.987 463.579 458.376H465.633C465.633 456.926 465.573 455.537 465.512 454.148L463.459 454.208ZM463.579 459.524C463.579 460.913 463.519 462.303 463.459 463.692L465.573 463.753C465.633 462.363 465.633 460.913 465.633 459.524H463.579Z" fill="#37405B"/>
<path d="M582.342 471.968C582.161 474.686 581.979 477.465 581.737 480.184L585.906 480.546C586.147 477.767 586.389 474.989 586.51 472.149L582.342 471.968ZM581.375 484.351C581.073 487.07 580.771 489.848 580.408 492.567L584.516 493.11C584.879 490.332 585.241 487.553 585.543 484.774L581.375 484.351ZM579.804 496.675C579.382 499.393 578.898 502.111 578.354 504.83L582.462 505.615C583.006 502.837 583.489 500.058 583.912 497.279L579.804 496.675ZM577.569 508.877C576.965 511.596 576.361 514.254 575.696 516.972L579.744 517.938C580.408 515.22 581.073 512.501 581.617 509.723L577.569 508.877ZM574.67 520.958C573.945 523.617 573.22 526.275 572.434 528.932L576.421 530.141C577.207 527.483 577.992 524.764 578.717 522.046L574.67 520.958ZM571.166 532.92C570.32 535.517 569.414 538.175 568.508 540.773L572.434 542.162C573.341 539.564 574.307 536.846 575.153 534.188L571.166 532.92ZM567.058 544.639C566.032 547.236 565.004 549.834 563.917 552.371L567.783 554.002C568.87 551.404 569.958 548.807 570.925 546.149L567.058 544.639ZM562.286 556.177C561.199 558.714 559.991 561.251 558.782 563.728L562.588 565.54C563.796 563.003 564.944 560.466 566.091 557.868L562.286 556.177ZM556.97 567.412C555.701 569.889 554.433 572.366 553.044 574.782L556.729 576.776C558.117 574.299 559.387 571.822 560.655 569.345L556.97 567.412ZM551.05 578.407C549.66 580.763 548.211 583.179 546.761 585.474L550.325 587.71C551.835 585.293 553.285 582.877 554.675 580.461L551.05 578.407ZM544.586 588.979C543.077 591.334 541.505 593.629 539.935 595.864L543.378 598.281C544.949 595.986 546.52 593.629 548.09 591.274L544.586 588.979ZM537.519 599.308C535.948 601.543 534.257 603.718 532.565 605.893L535.888 608.49C537.579 606.255 539.27 604.019 540.902 601.724L537.519 599.308ZM530.028 609.155C528.276 611.329 526.524 613.444 524.712 615.558L527.853 618.276C529.726 616.162 531.478 613.987 533.23 611.812L530.028 609.155ZM521.994 618.639C520.122 620.692 518.248 622.746 516.315 624.74L519.336 627.639C521.329 625.586 523.202 623.532 525.074 621.417L521.994 618.639ZM513.476 627.7C511.483 629.633 509.55 631.566 507.496 633.499L510.395 636.52C512.45 634.587 514.443 632.653 516.436 630.66L513.476 627.7ZM504.476 636.277C502.421 638.151 500.368 639.963 498.254 641.775L500.972 644.977C503.086 643.164 505.2 641.292 507.314 639.419L504.476 636.277ZM495.112 644.433C492.938 646.184 490.763 647.876 488.588 649.568L491.126 652.89C493.36 651.199 495.535 649.446 497.71 647.634L495.112 644.433ZM485.266 652.044C483.091 653.675 480.795 655.246 478.561 656.816L480.916 660.26C483.212 658.689 485.507 657.058 487.742 655.427L485.266 652.044ZM475.117 659.112C472.822 660.682 470.466 662.133 468.11 663.583L470.285 667.146C472.701 665.697 475.056 664.186 477.413 662.616L475.117 659.112ZM464.606 665.697C462.19 667.086 459.834 668.476 457.357 669.744L459.351 673.428C461.828 672.099 464.304 670.71 466.72 669.321L464.606 665.697ZM453.732 671.677C451.316 672.945 448.839 674.214 446.363 675.361L448.115 679.167C450.652 677.959 453.189 676.691 455.666 675.422L453.732 671.677ZM442.618 677.114C440.08 678.261 437.544 679.349 435.006 680.436L436.637 684.302C439.235 683.215 441.772 682.067 444.309 680.919L442.618 677.114ZM431.201 681.946C428.603 682.973 426.006 683.94 423.408 684.846L424.797 688.833C427.456 687.866 430.113 686.9 432.71 685.873L431.201 681.946ZM419.482 686.235C416.884 687.081 414.226 687.926 411.629 688.712L412.776 692.699C415.494 691.914 418.153 691.068 420.81 690.161L419.482 686.235ZM407.641 689.859C404.984 690.585 402.265 691.309 399.607 691.914L400.574 695.961C403.292 695.357 406.01 694.632 408.729 693.907L407.641 689.859ZM395.56 692.88C392.841 693.423 390.183 694.028 387.465 694.511L388.19 698.619C390.969 698.075 393.748 697.531 396.466 696.927L395.56 692.88ZM383.357 695.236C380.639 695.659 377.921 696.082 375.142 696.444L375.746 700.612C378.525 700.25 381.304 699.827 384.082 699.344L383.357 695.236ZM371.034 696.927C368.316 697.29 365.597 697.531 362.819 697.773L363.121 701.941C365.96 701.7 368.739 701.397 371.517 701.095L371.034 696.927ZM358.711 698.015C355.932 698.196 353.154 698.316 350.435 698.438L350.495 702.606C353.335 702.485 356.173 702.364 358.952 702.243L358.711 698.015ZM346.267 698.498C345.421 698.498 344.515 698.498 343.669 698.498C341.736 698.498 339.863 698.498 337.991 698.438L337.87 702.606C339.803 702.666 341.736 702.666 343.669 702.666C344.515 702.666 345.421 702.666 346.328 702.666L346.267 698.498ZM333.823 698.316C331.044 698.196 328.325 698.015 325.547 697.833L325.245 702.002C328.023 702.183 330.863 702.364 333.702 702.485L333.823 698.316ZM321.439 697.471C318.661 697.229 315.942 696.927 313.224 696.565L312.68 700.733C315.458 701.095 318.237 701.397 321.077 701.639L321.439 697.471ZM309.116 696.021C306.337 695.659 303.619 695.176 300.901 694.693L300.175 698.8C302.954 699.283 305.733 699.767 308.512 700.19L309.116 696.021ZM296.853 693.907C294.135 693.364 291.416 692.819 288.758 692.155L287.792 696.263C290.51 696.867 293.289 697.471 296.067 698.015L296.853 693.907ZM284.711 691.188C282.053 690.524 279.395 689.8 276.737 689.014L275.589 693.001C278.248 693.786 280.966 694.571 283.684 695.236L284.711 691.188ZM272.75 687.806C270.153 687.021 267.495 686.114 264.897 685.208L263.508 689.195C266.166 690.101 268.824 691.007 271.542 691.793L272.75 687.806ZM260.971 683.818C258.373 682.852 255.776 681.886 253.238 680.798L251.668 684.664C254.265 685.752 256.863 686.779 259.521 687.745L260.971 683.818ZM249.372 679.228C246.836 678.08 244.298 676.992 241.821 675.785L240.069 679.59C242.607 680.798 245.144 681.946 247.741 683.033L249.372 679.228ZM238.076 673.972C235.6 672.764 233.123 671.496 230.707 670.166L228.713 673.852C231.19 675.18 233.727 676.509 236.264 677.718L238.076 673.972ZM227.082 668.173C224.666 666.845 222.249 665.455 219.893 664.005L217.718 667.569C220.135 669.019 222.551 670.468 225.028 671.858L227.082 668.173ZM216.39 661.83C214.034 660.38 211.738 658.871 209.442 657.3L207.087 660.743C209.383 662.313 211.738 663.884 214.154 665.394L216.39 661.83ZM205.999 654.944C203.764 653.313 201.529 651.682 199.354 650.051L196.818 653.373C199.052 655.065 201.287 656.696 203.644 658.327L205.999 654.944ZM196.032 647.513C193.857 645.762 191.743 644.07 189.629 642.258L186.911 645.46C189.085 647.272 191.26 649.024 193.495 650.775L196.032 647.513ZM186.487 639.539C184.373 637.727 182.38 635.915 180.326 633.982L177.487 637.063C179.541 638.996 181.594 640.869 183.709 642.681L186.487 639.539ZM177.366 631.143C175.372 629.21 173.379 627.277 171.506 625.284L168.486 628.183C170.419 630.177 172.413 632.17 174.406 634.163L177.366 631.143ZM168.668 622.263C166.734 620.27 164.922 618.216 163.11 616.101L159.968 618.88C161.781 620.994 163.653 623.048 165.587 625.102L168.668 622.263ZM160.391 612.96C158.639 610.846 156.888 608.732 155.196 606.557L151.934 609.094C153.626 611.329 155.438 613.504 157.19 615.618L160.391 612.96ZM152.72 603.234C151.028 601.06 149.397 598.824 147.827 596.529L144.384 598.945C146.015 601.241 147.646 603.536 149.336 605.772L152.72 603.234ZM145.471 593.146C143.96 590.851 142.45 588.555 140.94 586.2L137.436 588.434C138.946 590.791 140.457 593.146 142.027 595.503L145.471 593.146ZM138.826 582.696C137.376 580.34 135.986 577.924 134.657 575.507L131.033 577.561C132.362 580.038 133.751 582.454 135.201 584.871L138.826 582.696ZM132.664 571.883C131.395 569.466 130.127 567.05 128.919 564.574L125.174 566.385C126.381 568.923 127.65 571.4 128.979 573.876L132.664 571.883ZM127.107 560.828C125.959 558.352 124.811 555.814 123.784 553.277L119.918 554.908C121.005 557.506 122.153 560.042 123.361 562.58L127.107 560.828ZM122.153 549.471C121.126 546.934 120.159 544.337 119.193 541.739L115.267 543.189C116.233 545.847 117.26 548.445 118.287 551.042L122.153 549.471ZM117.804 537.873C116.898 535.215 116.052 532.618 115.206 529.959L111.219 531.228C112.065 533.886 112.911 536.544 113.816 539.202L117.804 537.873ZM114.058 526.033C113.273 523.375 112.548 520.717 111.883 517.999L107.836 519.025C108.501 521.744 109.226 524.463 110.011 527.181L114.058 526.033ZM110.917 514.012C110.252 511.294 109.709 508.575 109.165 505.857L105.057 506.703C105.601 509.481 106.205 512.199 106.809 514.918L110.917 514.012ZM108.38 501.81C107.897 499.091 107.474 496.372 107.051 493.654L102.943 494.198C103.366 497.037 103.789 499.816 104.272 502.534L108.38 501.81ZM106.507 489.546C106.205 486.828 105.903 484.049 105.662 481.271L101.493 481.693C101.735 484.472 102.037 487.251 102.4 490.03L106.507 489.546ZM105.3 477.163C105.118 474.445 104.937 471.666 104.816 468.887L100.648 469.068C100.769 471.847 100.95 474.686 101.131 477.465L105.3 477.163ZM104.695 464.779C104.695 463.027 104.635 461.276 104.635 459.524C104.635 458.497 104.695 457.47 104.695 456.503L100.527 456.443C100.466 457.47 100.466 458.497 100.466 459.524C100.466 461.276 100.527 463.088 100.527 464.84L104.695 464.779ZM104.756 452.336C104.876 449.557 104.997 446.778 105.178 444.06L101.01 443.818C100.829 446.597 100.648 449.375 100.588 452.214L104.756 452.336ZM105.481 439.952C105.662 437.173 105.964 434.394 106.266 431.676L102.097 431.192C101.795 433.971 101.493 436.75 101.312 439.589L105.481 439.952ZM106.749 427.568C107.172 424.85 107.534 422.071 108.018 419.352L103.91 418.688C103.426 421.467 103.004 424.245 102.641 427.024L106.749 427.568ZM108.743 415.305C109.226 412.587 109.83 409.868 110.434 407.211L106.326 406.304C105.722 409.023 105.178 411.741 104.635 414.52L108.743 415.305ZM111.34 403.163C112.005 400.444 112.669 397.787 113.455 395.129L109.407 394.042C108.682 396.699 107.957 399.418 107.293 402.197L111.34 403.163ZM114.602 391.142C115.388 388.484 116.233 385.887 117.078 383.289L113.152 381.899C112.246 384.558 111.4 387.276 110.555 389.934L114.602 391.142ZM118.468 379.302C119.374 376.704 120.34 374.107 121.368 371.57L117.502 369.999C116.475 372.657 115.447 375.255 114.481 377.913L118.468 379.302ZM122.938 367.703C124.026 365.167 125.113 362.629 126.261 360.092L122.455 358.341C121.307 360.938 120.159 363.475 119.072 366.072L122.938 367.703ZM128.012 356.347C129.221 353.81 130.429 351.333 131.758 348.917L128.012 346.984C126.744 349.46 125.476 351.998 124.267 354.534L128.012 356.347ZM133.691 345.231C135.02 342.815 136.41 340.399 137.799 338.043L134.174 335.929C132.785 338.346 131.395 340.762 130.006 343.239L133.691 345.231ZM139.913 334.479C141.363 332.123 142.873 329.828 144.384 327.472L140.94 325.176C139.369 327.532 137.859 329.888 136.349 332.305L139.913 334.479ZM146.739 324.089C148.31 321.793 149.88 319.558 151.572 317.324L148.189 314.847C146.498 317.081 144.867 319.377 143.296 321.673L146.739 324.089ZM154.048 314.001C155.74 311.826 157.432 309.652 159.183 307.537L155.982 304.879C154.17 307.054 152.417 309.228 150.726 311.464L154.048 314.001ZM161.901 304.335C163.653 302.221 165.526 300.167 167.339 298.174L164.258 295.335C162.385 297.389 160.512 299.503 158.7 301.617L161.901 304.335ZM170.177 295.093C172.11 293.1 174.044 291.166 175.977 289.173L173.077 286.213C171.084 288.207 169.09 290.2 167.157 292.254L170.177 295.093ZM178.997 286.334C180.991 284.401 182.984 282.528 185.038 280.716L182.32 277.575C180.205 279.447 178.151 281.38 176.097 283.314L178.997 286.334ZM188.179 277.998C190.294 276.185 192.408 274.434 194.582 272.742L191.985 269.42C189.749 271.232 187.575 272.984 185.461 274.796L188.179 277.998ZM197.844 270.144C200.019 268.453 202.194 266.822 204.429 265.191L202.013 261.809C199.717 263.44 197.482 265.131 195.247 266.822L197.844 270.144ZM207.811 262.835C210.107 261.265 212.403 259.754 214.698 258.244L212.463 254.741C210.107 256.251 207.752 257.821 205.456 259.392L207.811 262.835ZM218.202 256.07C220.558 254.62 222.914 253.17 225.33 251.841L223.276 248.217C220.799 249.606 218.383 250.995 216.027 252.506L218.202 256.07ZM228.954 249.787C231.371 248.458 233.787 247.189 236.264 245.982L234.391 242.236C231.854 243.505 229.377 244.773 226.901 246.163L228.954 249.787ZM239.949 244.109C242.426 242.961 244.962 241.753 247.439 240.665L245.748 236.86C243.211 237.947 240.674 239.156 238.136 240.363L239.949 244.109ZM251.245 239.034C253.782 237.947 256.319 236.981 258.917 235.953L257.467 232.088C254.809 233.054 252.212 234.081 249.614 235.168L251.245 239.034ZM262.783 234.564C265.381 233.598 268.038 232.691 270.636 231.906L269.367 227.92C266.71 228.765 264.052 229.671 261.393 230.638L262.783 234.564ZM274.623 230.638C277.22 229.853 279.879 229.127 282.597 228.403L281.51 224.355C278.791 225.08 276.073 225.865 273.415 226.651L274.623 230.638ZM286.584 227.376C289.241 226.711 291.96 226.107 294.679 225.563L293.833 221.455C291.054 221.999 288.336 222.664 285.617 223.329L286.584 227.376ZM298.726 224.717C301.444 224.234 304.163 223.751 306.881 223.329L306.277 219.221C303.498 219.643 300.719 220.127 297.941 220.61L298.726 224.717ZM310.989 222.725C313.707 222.362 316.486 222.06 319.204 221.758L318.781 217.59C316.002 217.891 313.224 218.193 310.445 218.617L310.989 222.725ZM323.372 221.396C326.091 221.154 328.869 220.972 331.587 220.791L331.406 216.623C328.567 216.804 325.789 216.986 323.01 217.227L323.372 221.396ZM335.756 220.67C338.354 220.55 341.011 220.55 343.669 220.55H344.032V216.321H343.669C340.951 216.321 338.293 216.381 335.635 216.503L335.756 220.67ZM348.2 220.55C350.978 220.61 353.697 220.731 356.476 220.852L356.657 216.684C353.878 216.562 351.099 216.442 348.26 216.382L348.2 220.55ZM360.583 221.094C363.362 221.335 366.081 221.577 368.859 221.818L369.282 217.65C366.504 217.408 363.725 217.167 360.885 216.925L360.583 221.094ZM372.967 222.301C375.686 222.664 378.464 223.027 381.183 223.449L381.848 219.341C379.069 218.858 376.29 218.496 373.45 218.134L372.967 222.301ZM385.23 224.114C388.009 224.597 390.667 225.141 393.385 225.684L394.231 221.637C391.512 221.033 388.733 220.489 385.955 220.006L385.23 224.114ZM397.433 226.591C400.151 227.194 402.809 227.859 405.467 228.584L406.554 224.536C403.836 223.812 401.117 223.147 398.338 222.543L397.433 226.591ZM409.454 229.671C412.112 230.456 414.77 231.242 417.367 232.088L418.696 228.161C415.978 227.255 413.32 226.47 410.601 225.684L409.454 229.671ZM421.354 233.417C423.951 234.322 426.549 235.289 429.146 236.256L430.657 232.389C427.999 231.363 425.341 230.396 422.683 229.49L421.354 233.417ZM433.013 237.766C435.55 238.793 438.148 239.88 440.624 241.028L442.376 237.222C439.779 236.075 437.181 234.987 434.584 233.9L433.013 237.766ZM444.43 242.72C446.967 243.927 449.444 245.136 451.92 246.404L453.793 242.659C451.256 241.39 448.78 240.122 446.182 238.974L444.43 242.72ZM455.606 248.277C458.022 249.606 460.438 250.935 462.854 252.324L464.909 248.7C462.492 247.311 460.015 245.921 457.539 244.592L455.606 248.277ZM466.418 254.439C468.774 255.828 471.13 257.277 473.425 258.788L475.721 255.285C473.366 253.774 470.949 252.264 468.593 250.814L466.418 254.439ZM476.93 261.083C479.225 262.654 481.46 264.225 483.695 265.856L486.172 262.473C483.876 260.782 481.581 259.211 479.225 257.64L476.93 261.083ZM487.078 268.332C489.252 269.963 491.428 271.655 493.602 273.406L496.2 270.144C494.025 268.393 491.79 266.641 489.554 264.949L487.078 268.332ZM496.804 276.004C498.918 277.816 501.032 279.629 503.086 281.441L505.865 278.36C503.75 276.487 501.636 274.615 499.462 272.803L496.804 276.004ZM506.107 284.22C508.16 286.092 510.154 288.026 512.087 289.959L515.047 286.999C513.053 285.005 511 283.072 508.945 281.199L506.107 284.22ZM514.986 292.919C516.919 294.912 518.853 296.905 520.665 298.959L523.806 296.12C521.873 294.066 519.94 292.012 518.007 290.019L514.986 292.919ZM523.443 302.04C525.256 304.094 527.068 306.208 528.82 308.383L532.022 305.725C530.269 303.55 528.457 301.376 526.585 299.321L523.443 302.04ZM531.357 311.585C533.109 313.759 534.74 315.934 536.371 318.169L539.754 315.693C538.123 313.457 536.371 311.222 534.679 308.987L531.357 311.585ZM538.787 321.552C540.418 323.787 541.989 326.083 543.499 328.378L546.942 326.083C545.432 323.726 543.862 321.431 542.231 319.136L538.787 321.552ZM545.734 331.822C547.184 334.177 548.634 336.533 550.023 338.889L553.648 336.774C552.198 334.358 550.748 332.003 549.238 329.586L545.734 331.822ZM552.077 342.513C553.406 344.87 554.735 347.286 556.003 349.762L559.749 347.829C558.42 345.353 557.091 342.876 555.701 340.46L552.077 342.513ZM557.876 353.447C559.084 355.924 560.293 358.401 561.44 360.938L565.246 359.186C564.099 356.649 562.89 354.112 561.622 351.574L557.876 353.447ZM563.071 364.683C564.158 367.22 565.246 369.758 566.213 372.294L570.139 370.784C569.112 368.187 568.025 365.589 566.937 363.052L563.071 364.683ZM567.722 376.161C568.689 378.758 569.596 381.356 570.501 384.014L574.428 382.684C573.522 380.027 572.615 377.369 571.649 374.711L567.722 376.161ZM571.77 387.94C572.556 390.598 573.341 393.196 574.065 395.914L578.113 394.766C577.388 392.048 576.603 389.39 575.757 386.672L571.77 387.94ZM575.153 399.901C575.818 402.559 576.482 405.217 577.086 407.935L581.133 407.029C580.529 404.311 579.925 401.592 579.2 398.874L575.153 399.901ZM577.932 411.983C578.475 414.701 578.958 417.419 579.442 420.138L583.549 419.473C583.066 416.695 582.583 413.916 582.039 411.197L577.932 411.983ZM580.046 424.245C580.469 426.964 580.831 429.682 581.133 432.461L585.301 431.978C584.999 429.199 584.637 426.42 584.214 423.642L580.046 424.245ZM581.556 436.569C581.798 439.287 582.039 442.066 582.22 444.845L586.389 444.603C586.208 441.764 585.966 438.985 585.724 436.207L581.556 436.569ZM582.402 448.952C582.523 451.731 582.583 454.45 582.644 457.229H586.811C586.811 454.389 586.691 451.61 586.57 448.771L582.402 448.952ZM582.644 459.524C582.644 462.303 582.583 465.021 582.523 467.8L586.691 467.921C586.751 465.142 586.811 462.363 586.811 459.524H582.644Z" fill="#37405B"/>
<path d="M281.51 344.144C298.787 334.842 318.358 329.345 339.139 328.68V297.268C312.62 297.933 287.671 304.879 265.743 316.84L281.51 344.144Z" fill="#37405B"/>
<path d="M339.139 621.78V590.307C318.358 589.643 298.786 584.206 281.57 574.903L265.803 602.208C287.671 614.108 312.62 621.115 339.139 621.78Z" fill="#37405B"/>
<path d="M458.746 397.787C467.989 415.064 473.486 434.635 474.151 455.355H505.563C504.898 428.836 497.952 403.887 486.051 382.02L458.746 397.787Z" fill="#617A5B"/>
<path d="M412.353 348.373C429.448 359.005 443.886 373.442 454.518 390.538L481.823 374.771C468.412 352.903 449.987 334.479 428.119 321.069L412.353 348.373Z" fill="#617A5B"/>
<path d="M232.096 390.538C242.728 373.442 257.165 359.005 274.26 348.373L258.494 321.069C236.626 334.479 218.202 352.903 204.792 374.771L232.096 390.538Z" fill="#37405B"/>
<path d="M274.321 570.735C257.225 560.103 242.788 545.666 232.156 528.57L204.851 544.337C218.262 566.205 236.687 584.629 258.555 598.039L274.321 570.735Z" fill="#37405B"/>
<path d="M227.928 521.321C218.685 504.105 213.188 484.533 212.523 463.753H181.051C181.715 490.272 188.722 515.22 200.623 537.087L227.928 521.321Z" fill="#37405B"/>
<path d="M343.669 296.241C253.48 296.241 180.387 369.334 180.387 459.524C180.387 549.713 253.48 622.807 343.669 622.807C433.858 622.807 506.952 549.713 506.952 459.524C506.952 369.334 433.858 296.241 343.669 296.241ZM343.669 308.806C426.73 308.806 494.388 376.402 494.388 459.524C494.388 542.645 426.73 610.242 343.669 610.242C260.548 610.242 192.951 542.645 192.951 459.524C192.951 376.402 260.548 308.806 343.669 308.806Z" fill="#37405B"/>
<path d="M211.316 63.9723C211.316 68.0195 208.054 71.2814 204.006 71.2814C199.959 71.2814 196.636 68.0195 196.636 63.9723C196.636 59.9248 199.959 56.6024 204.006 56.6024C208.054 56.6024 211.316 59.9248 211.316 63.9723Z" fill="#37405B" stroke="#617A5B" stroke-width="0.288005"/>
<path d="M112.367 378.939L99.4396 356.467L112.367 333.996H138.343L151.269 356.467L138.343 378.939H112.367Z" fill="#617A5B" stroke="#617A5B" stroke-width="0.288005"/>
<path fill-rule="evenodd" clip-rule="evenodd" d="M366.685 435.905L362.638 450.1H353.939V474.505C353.939 475.291 354.422 476.076 355.026 476.74L352.912 484.231C351.523 484.231 350.194 484.231 348.865 484.291C347.052 484.231 345.542 483.868 344.153 483.385C341.435 482.539 339.139 480.667 338.475 477.888C338.173 476.559 338.475 468.948 338.475 466.954C338.475 465.081 338.475 463.269 338.475 461.457C338.475 460.369 338.595 459.705 338.595 458.738V450.403C325.849 450.403 323.01 450.705 310.747 453.362C311.714 452.154 314.432 449.013 314.976 448.409L317.151 445.932C319.084 443.879 321.5 440.979 323.493 438.743L324.218 437.897C325.849 436.025 325.426 436.146 326.997 436.146C340.226 436.025 353.456 435.964 366.685 435.905Z" fill="#FEFEFE"/>
<path d="M368.678 428.051L350.616 492.386" stroke="#617A5B" stroke-width="1.27977"/>
</svg>
