<svg width="158" height="141" viewBox="0 0 158 141" fill="none" xmlns="http://www.w3.org/2000/svg">
<path d="M47.7144 7.27658C44.4602 7.27658 41.4119 9.02422 39.7848 11.841L8.49919 65.9356C6.87209 68.7524 6.87209 72.2476 8.49919 75.0644L39.7848 129.159C41.4119 131.976 44.4602 133.723 47.7144 133.723H110.286C113.54 133.723 116.567 131.976 118.195 129.159L149.501 75.0644C151.128 72.2476 151.128 68.7524 149.501 65.9356L118.195 11.841C116.567 9.02422 113.54 7.27658 110.286 7.27658H47.7144ZM110.286 138H47.7144C42.9154 138 38.4667 135.451 36.0775 131.297L4.79187 77.2027C2.40271 73.0701 2.40271 67.9299 4.79187 63.7973L36.0775 9.70271C38.4667 5.57006 42.9154 3 47.7144 3H110.286C115.064 3 119.533 5.57006 121.922 9.70271L153.208 63.7973C155.597 67.9299 155.597 73.0701 153.208 77.2027L121.922 131.297C119.533 135.451 115.064 138 110.286 138Z" fill="#37405B" stroke="#37405B" stroke-width="6"/>
<path d="M51.8333 102.531V91.75M78.5 102.531V80.9687M105.167 102.531V70.1354M105.167 38.4687L102.771 41.2812C89.4736 56.8063 71.6692 67.8021 51.8333 72.7396" stroke="#37405B" stroke-width="9" stroke-linecap="round"/>
<path d="M89.9062 38.4687H105.167V53.6771" stroke="#37405B" stroke-width="9" stroke-linecap="round" stroke-linejoin="round"/>
</svg>
