<svg width="158" height="141" viewBox="0 0 158 141" fill="none" xmlns="http://www.w3.org/2000/svg">
<g clip-path="url(#clip0_2_24)">
<path d="M67.3333 40.0833V49.2083M91.6666 40.0833V49.2083M53.6458 61.6488H105.354M109.917 91.7917C109.917 94.0729 109.278 96.2325 108.152 98.0575C107.08 99.8597 105.557 101.352 103.733 102.386C101.909 103.421 99.847 103.963 97.75 103.958C94.6779 103.958 91.8796 102.833 89.7504 100.917C88.8075 100.126 87.9862 99.1525 87.3475 98.0575C86.1896 96.173 85.5788 94.0035 85.5833 91.7917C85.5833 85.0696 91.0279 79.625 97.75 79.625C101.4 79.625 104.655 81.2371 106.875 83.7617C108.831 85.9797 109.912 88.8343 109.917 91.7917Z" stroke="#37405B" stroke-width="8" stroke-miterlimit="10" stroke-linecap="round" stroke-linejoin="round"/>
<path d="M93.005 91.7917L96.0163 94.8029L102.495 88.8108" stroke="#37405B" stroke-width="3" stroke-linecap="round" stroke-linejoin="round"/>
<path d="M106.875 59.8542V83.7617C104.655 81.2371 101.4 79.625 97.75 79.625C91.0279 79.625 85.5833 85.0696 85.5833 91.7917C85.5833 94.0729 86.2221 96.2325 87.3475 98.0575C87.9863 99.1525 88.8075 100.126 89.7504 100.917H67.3333C56.6875 100.917 52.125 94.8333 52.125 85.7083V59.8542C52.125 50.7292 56.6875 44.6458 67.3333 44.6458H91.6667C102.313 44.6458 106.875 50.7292 106.875 59.8542Z" stroke="#37405B" stroke-width="8" stroke-miterlimit="10" stroke-linecap="round" stroke-linejoin="round"/>
<path d="M79.4848 75.6708H79.5152M68.2276 75.6708H68.258M68.2276 84.7958H68.258" stroke="#37405B" stroke-width="6" stroke-linecap="round" stroke-linejoin="round"/>
</g>
<path d="M47.7144 7.27658C44.4602 7.27658 41.4119 9.02422 39.7848 11.841L8.49919 65.9356C6.87209 68.7524 6.87209 72.2476 8.49919 75.0644L39.7848 129.159C41.4119 131.976 44.4602 133.723 47.7144 133.723H110.286C113.54 133.723 116.567 131.976 118.195 129.159L149.501 75.0644C151.128 72.2476 151.128 68.7524 149.501 65.9356L118.195 11.841C116.567 9.02422 113.54 7.27658 110.286 7.27658H47.7144ZM110.286 138H47.7144C42.9154 138 38.4667 135.451 36.0775 131.297L4.79187 77.2027C2.40271 73.0701 2.40271 67.9299 4.79187 63.7973L36.0775 9.70271C38.4667 5.57006 42.9154 3 47.7144 3H110.286C115.064 3 119.533 5.57006 121.922 9.70271L153.208 63.7973C155.597 67.9299 155.597 73.0701 153.208 77.2027L121.922 131.297C119.533 135.451 115.064 138 110.286 138Z" fill="#37405B" stroke="#37405B" stroke-width="6"/>
<defs>
<clipPath id="clip0_2_24">
<rect width="73" height="73" fill="white" transform="translate(43 34)"/>
</clipPath>
</defs>
</svg>
