<svg width="158" height="141" viewBox="0 0 158 141" fill="none" xmlns="http://www.w3.org/2000/svg">
<path d="M47.7144 7.27658C44.4602 7.27658 41.4119 9.02422 39.7848 11.841L8.49919 65.9356C6.87209 68.7524 6.87209 72.2476 8.49919 75.0644L39.7848 129.159C41.4119 131.976 44.4602 133.723 47.7144 133.723H110.286C113.54 133.723 116.567 131.976 118.195 129.159L149.501 75.0644C151.128 72.2476 151.128 68.7524 149.501 65.9356L118.195 11.841C116.567 9.02422 113.54 7.27658 110.286 7.27658H47.7144ZM110.286 138H47.7144C42.9154 138 38.4667 135.451 36.0775 131.297L4.79187 77.2027C2.40271 73.0701 2.40271 67.9299 4.79187 63.7973L36.0775 9.70271C38.4667 5.57006 42.9154 3 47.7144 3H110.286C115.064 3 119.533 5.57006 121.922 9.70271L153.208 63.7973C155.597 67.9299 155.597 73.0701 153.208 77.2027L121.922 131.297C119.533 135.451 115.064 138 110.286 138Z" fill="#617A5B" stroke="#617A5B" stroke-width="6"/>
<path d="M86.838 72.6855C92.5267 72.6855 97.9824 70.4242 102.005 66.399C106.028 62.3738 108.287 56.9145 108.287 51.2221C108.287 45.5296 106.028 40.0703 102.005 36.0451C97.9824 32.0199 92.5267 29.7586 86.838 29.7586C81.1492 29.7586 75.6935 32.0199 71.671 36.0451C67.6484 40.0703 65.3886 45.5296 65.3886 51.2221C65.3886 56.9145 67.6484 62.3738 71.671 66.399C75.6935 70.4242 81.1492 72.6855 86.838 72.6855ZM48.2458 102.726C51.6612 102.726 54.9368 101.368 57.3519 98.9516C59.767 96.5349 61.1238 93.2572 61.1238 89.8395C61.1238 86.4218 59.767 83.1441 57.3519 80.7274C54.9368 78.3108 51.6612 76.9531 48.2458 76.9531C44.8303 76.9531 41.5548 78.3108 39.1397 80.7274C36.7246 83.1441 35.3678 86.4218 35.3678 89.8395C35.3678 93.2572 36.7246 96.5349 39.1397 98.9516C41.5548 101.368 44.8303 102.726 48.2458 102.726ZM91.1446 113.437C92.5502 113.437 93.9421 113.16 95.2407 112.621C96.5394 112.083 97.7193 111.294 98.7133 110.3C99.7072 109.305 100.496 108.124 101.034 106.825C101.571 105.525 101.848 104.133 101.848 102.726C101.848 101.319 101.571 99.9266 101.034 98.6271C100.496 97.3276 99.7072 96.1469 98.7133 95.1523C97.7193 94.1577 96.5394 93.3687 95.2407 92.8305C93.9421 92.2922 92.5502 92.0152 91.1446 92.0152C88.3057 92.0152 85.5832 93.1436 83.5758 95.1523C81.5685 97.1609 80.4408 99.8853 80.4408 102.726C80.4408 105.567 81.5685 108.291 83.5758 110.3C85.5832 112.308 88.3057 113.437 91.1446 113.437Z" stroke="#617A5B" stroke-width="8" stroke-miterlimit="10"/>
</svg>
