<svg width="158" height="141" viewBox="0 0 158 141" fill="none" xmlns="http://www.w3.org/2000/svg">
<path d="M47.7144 7.27658C44.4602 7.27658 41.4119 9.02422 39.7848 11.841L8.49919 65.9356C6.87209 68.7524 6.87209 72.2476 8.49919 75.0644L39.7848 129.159C41.4119 131.976 44.4602 133.723 47.7144 133.723H110.286C113.54 133.723 116.567 131.976 118.195 129.159L149.501 75.0644C151.128 72.2476 151.128 68.7524 149.501 65.9356L118.195 11.841C116.567 9.02422 113.54 7.27658 110.286 7.27658H47.7144ZM110.286 138H47.7144C42.9154 138 38.4667 135.451 36.0775 131.297L4.79187 77.2027C2.40271 73.0701 2.40271 67.9299 4.79187 63.7973L36.0775 9.70271C38.4667 5.57006 42.9154 3 47.7144 3H110.286C115.064 3 119.533 5.57006 121.922 9.70271L153.208 63.7973C155.597 67.9299 155.597 73.0701 153.208 77.2027L121.922 131.297C119.533 135.451 115.064 138 110.286 138Z" fill="#617A5B" stroke="#617A5B" stroke-width="6"/>
<path d="M106.625 58.875C106.625 64.4938 104.959 69.6475 102.091 73.9488C99.99 77.0826 97.2568 79.7426 94.067 81.7579C90.8772 83.7732 87.3013 85.0994 83.5687 85.6512C82.2512 85.8837 80.895 86 79.5 86C78.105 86 76.7487 85.8837 75.4312 85.6512C71.6987 85.0994 68.1228 83.7732 64.933 81.7579C61.7432 79.7426 59.01 77.0826 56.9087 73.9488C53.9339 69.486 52.3556 64.2384 52.375 58.875C52.375 43.8788 64.5037 31.75 79.5 31.75C94.4962 31.75 106.625 43.8788 106.625 58.875Z" stroke="#617A5B" stroke-width="8" stroke-linecap="round" stroke-linejoin="round"/>
<path d="M115.344 95.5713L108.95 97.0825C107.516 97.4313 106.393 98.5163 106.083 99.95L104.726 105.646C104.56 106.345 104.202 106.985 103.694 107.492C103.185 108 102.545 108.356 101.845 108.521C101.146 108.686 100.414 108.653 99.7321 108.426C99.0501 108.199 98.4448 107.786 97.9838 107.235L79.5 86L61.0163 107.274C60.5552 107.825 59.9499 108.237 59.268 108.465C58.586 108.692 57.8544 108.725 57.1548 108.56C56.4552 108.395 55.8152 108.039 55.3065 107.531C54.7977 107.023 54.4401 106.384 54.2738 105.685L52.9175 99.9888C52.7527 99.2918 52.3971 98.6545 51.8907 98.148C51.3843 97.6416 50.747 97.2861 50.05 97.1213L43.6563 95.61C42.9864 95.4494 42.3712 95.1137 41.8737 94.6372C41.3763 94.1607 41.0144 93.5605 40.8251 92.8982C40.6359 92.2358 40.6261 91.5351 40.7967 90.8677C40.9674 90.2003 41.3123 89.5902 41.7963 89.1L56.9088 73.9875C59.01 77.1214 61.7432 79.7814 64.933 81.7967C68.1228 83.812 71.6987 85.1381 75.4313 85.69C76.7488 85.9225 78.105 86.0388 79.5 86.0388C80.895 86.0388 82.2513 85.9225 83.5688 85.69C91.28 84.5663 97.9063 80.1875 102.091 73.9875L117.204 89.1C119.335 91.1925 118.289 94.8738 115.344 95.5713ZM81.7475 47.1725L84.0338 51.745C84.3438 52.365 85.1575 52.985 85.8938 53.1013L90.04 53.7988C92.675 54.225 93.295 56.1625 91.3963 58.0613L88.18 61.2775C87.6375 61.82 87.3275 62.8662 87.5213 63.6412L88.4513 67.6325C89.1875 70.7713 87.5213 72.0113 84.7313 70.345L80.8563 68.0587C80.4627 67.8488 80.0236 67.7389 79.5775 67.7389C79.1315 67.7389 78.6923 67.8488 78.2988 68.0587L74.4238 70.345C71.6338 71.9725 69.9675 70.7713 70.7038 67.6325L71.6338 63.6412C71.7888 62.905 71.5175 61.82 70.975 61.2775L67.7588 58.0613C65.86 56.1625 66.48 54.2638 69.115 53.7988L73.2613 53.1013C73.9588 52.985 74.7725 52.365 75.0825 51.745L77.3688 47.1725C78.4925 44.6925 80.5075 44.6925 81.7475 47.1725Z" stroke="#617A5B" stroke-width="8" stroke-linecap="round" stroke-linejoin="round"/>
</svg>
