<svg width="71" height="62" viewBox="0 0 71 62" fill="none" xmlns="http://www.w3.org/2000/svg">
<path d="M18.2867 61.0995L1 31.0498L18.2867 1H53.0216L70.3083 31.0498L53.0216 61.0995H18.2867Z" fill="#617A5B" stroke="#617A5B" stroke-width="0.288005"/>
<path d="M52.7012 40.4288C52.7012 41.0138 52.5712 41.6151 52.295 42.2001C52.0187 42.7851 51.6613 43.3376 51.19 43.8576C50.3938 44.7351 49.5162 45.3688 48.525 45.7751C47.55 46.1813 46.4938 46.3926 45.3563 46.3926C43.6988 46.3926 41.9275 46.0026 40.0587 45.2063C38.19 44.4101 36.3212 43.3376 34.4688 41.9888C32.5807 40.6077 30.799 39.0868 29.1387 37.4388C27.4955 35.7846 25.9799 34.0083 24.605 32.1251C23.2725 30.2726 22.2 28.4201 21.42 26.5838C20.64 24.7313 20.25 22.9601 20.25 21.2701C20.25 20.1651 20.445 19.1088 20.835 18.1338C21.225 17.1426 21.8425 16.2326 22.7037 15.4201C23.7437 14.3963 24.8813 13.8926 26.0838 13.8926C26.5388 13.8926 26.9938 13.9901 27.4 14.1851C27.8225 14.3801 28.1963 14.6726 28.4888 15.0951L32.2588 20.4088C32.5513 20.8151 32.7625 21.1888 32.9087 21.5463C33.055 21.8876 33.1363 22.2288 33.1363 22.5376C33.1363 22.9276 33.0225 23.3176 32.795 23.6913C32.5838 24.0651 32.275 24.4551 31.885 24.8451L30.65 26.1288C30.4712 26.3076 30.39 26.5188 30.39 26.7788C30.39 26.9088 30.4063 27.0226 30.4388 27.1526C30.4875 27.2826 30.5363 27.3801 30.5688 27.4776C30.8613 28.0138 31.365 28.7126 32.08 29.5576C32.8112 30.4026 33.5912 31.2638 34.4362 32.1251C35.3137 32.9863 36.1587 33.7826 37.02 34.5138C37.865 35.2288 38.5637 35.7163 39.1162 36.0088C39.1975 36.0413 39.295 36.0901 39.4087 36.1388C39.5387 36.1876 39.6687 36.2038 39.815 36.2038C40.0912 36.2038 40.3025 36.1063 40.4812 35.9276L41.7163 34.7088C42.1225 34.3026 42.5125 33.9938 42.8863 33.7988C43.26 33.5713 43.6337 33.4576 44.04 33.4576C44.3487 33.4576 44.6738 33.5226 45.0312 33.6688C45.3887 33.8151 45.7625 34.0263 46.1688 34.3026L51.5475 38.1213C51.97 38.4138 52.2625 38.7551 52.4412 39.1613C52.6037 39.5676 52.7012 39.9738 52.7012 40.4288Z" stroke="white" stroke-width="2" stroke-miterlimit="10"/>
</svg>
