<svg width="2063" height="307" viewBox="0 0 2063 307" fill="none" xmlns="http://www.w3.org/2000/svg">
<path d="M0.379562 93.3435L227.301 201.843L466.89 35.3622L680.068 306.285L972.109 133.067L1181.02 221.746L1545.23 48.385L1824.45 255.169L2062.24 149.769L2059.3 143.133L1825.33 246.835L1545.98 39.9977L1180.84 213.844L971.546 125.006L681.828 296.922L468.319 25.5633L226.604 193.576L3.4792 86.9105L0.379562 93.3435Z" fill="#808080" fill-opacity="0.15"/>
<path d="M961.194 149.393C974.663 155.11 990.216 148.826 995.933 135.357C1001.65 121.889 995.366 106.336 981.898 100.619C968.429 94.9014 952.876 101.185 947.159 114.654C941.442 128.122 947.726 143.675 961.194 149.393Z" fill="white" stroke="#37405B" stroke-width="8"/>
<path d="M456.539 59.7492C470.008 65.4663 485.561 59.1824 491.278 45.7139C496.995 32.2453 490.711 16.6923 477.242 10.9752C463.774 5.25813 448.221 11.542 442.504 25.0105C436.787 38.4791 443.07 54.0321 456.539 59.7492Z" fill="white" stroke="#37405B" stroke-width="8"/>
<path d="M1534.87 72.7719C1548.34 78.489 1563.9 72.2051 1569.61 58.7366C1575.33 45.268 1569.05 29.715 1555.58 23.9979C1542.11 18.2808 1526.56 24.5647 1520.84 38.0332C1515.12 51.5018 1521.41 67.0548 1534.87 72.7719Z" fill="white" stroke="#37405B" stroke-width="8"/>
</svg>
