<svg width="404" height="85" viewBox="0 0 404 85" fill="none" xmlns="http://www.w3.org/2000/svg">
<path d="M93.9754 71.8892C89.5668 71.8892 85.9011 70.7004 82.9785 68.3227C80.0559 65.9449 78.4378 62.8737 78.124 59.109H85.4058C85.769 60.9584 86.7267 62.4527 88.2788 63.592C89.8475 64.7313 91.7546 65.301 94.0002 65.301C96.543 65.301 98.6318 64.4589 100.266 62.7747C101.918 61.0739 102.859 58.7705 103.09 55.8644H88.9476V49.8954H103.065C102.785 47.0884 101.827 44.8923 100.192 43.3072C98.574 41.7055 96.5183 40.9047 94.025 40.9047C91.7959 40.9047 89.897 41.5074 88.3284 42.7127C86.7597 43.9016 85.7938 45.4785 85.4305 47.4434H78.1488C78.4295 43.6457 80.0559 40.5084 83.0281 38.0316C86.0002 35.5549 89.6576 34.3165 94.0002 34.3165C99.2014 34.3165 103.296 35.9842 106.285 39.3196C109.29 42.655 110.793 47.237 110.793 53.0657C110.793 58.9109 109.29 63.5094 106.285 66.8614C103.28 70.2133 99.1767 71.8892 93.9754 71.8892ZM126.124 50.4155H127.263L139.771 35.2329H148.093L133.579 52.7189L149.084 70.9728H140.044L127.313 56.335H126.124V70.9728H118.644V35.2329H126.124V50.4155ZM168.898 71.8892C163.713 71.8892 159.618 70.2133 156.613 66.8614C153.625 63.4929 152.13 58.9026 152.13 53.0905C152.13 47.2783 153.625 42.6962 156.613 39.3443C159.618 35.9924 163.713 34.3165 168.898 34.3165C173.125 34.3165 176.692 35.5796 179.598 38.1059C182.52 40.6157 184.122 43.819 184.403 47.7158H177.121C176.758 45.6519 175.825 44.0007 174.322 42.7623C172.836 41.5239 171.028 40.9047 168.898 40.9047C166.091 40.9047 163.87 41.9945 162.235 44.174C160.601 46.3536 159.783 49.3257 159.783 53.0905C159.783 56.8552 160.601 59.8356 162.235 62.0316C163.87 64.2112 166.099 65.301 168.923 65.301C171.069 65.301 172.886 64.7148 174.372 63.5425C175.858 62.3701 176.782 60.8015 177.146 58.8366H184.427C184.114 62.7004 182.52 65.8459 179.647 68.2731C176.791 70.6839 173.208 71.8892 168.898 71.8892ZM222.941 70.9728H215.486V41.6477H199.759V70.9728H192.254V35.2329H222.941V70.9728ZM255.808 64.5827V70.9728H232.13V35.2329H255.808V41.623H239.61V49.9697H254.892V55.8892H239.61V64.5827H255.808ZM264.18 35.2329H279.09C282.772 35.2329 285.753 36.3722 288.031 38.6508C290.326 40.913 291.474 43.8933 291.474 47.592C291.474 51.2576 290.293 54.2215 287.932 56.4836C285.571 58.7458 282.5 59.8768 278.718 59.8768H271.66V70.9728H264.18V35.2329ZM271.66 41.3753V53.8087H277.084C279.247 53.8087 280.915 53.2803 282.087 52.2236C283.276 51.1503 283.87 49.6147 283.87 47.6168C283.87 45.6023 283.284 44.0585 282.112 42.9852C280.939 41.9119 279.272 41.3753 277.109 41.3753H271.66ZM314.756 70.9728H307.276V41.623H296.551V35.2329H325.48V41.623H314.756V70.9728ZM356.316 70.9728V47.2948H355.87L339.796 70.9728H332.588V35.2329H340.044V58.9357H340.489L356.564 35.2329H363.771V70.9728H356.316ZM380.242 55.8397V49.8459H384.972C386.739 49.8459 388.159 49.4001 389.232 48.5084C390.322 47.6168 390.867 46.4444 390.867 44.9914C390.867 43.5549 390.339 42.4155 389.282 41.5734C388.242 40.7313 386.797 40.3103 384.948 40.3103C383.098 40.3103 381.604 40.7643 380.465 41.6725C379.325 42.5807 378.714 43.8025 378.632 45.3381H371.722C371.854 41.9532 373.117 39.27 375.511 37.2886C377.922 35.3072 381.133 34.3165 385.146 34.3165C388.96 34.3165 392.056 35.2164 394.434 37.0162C396.828 38.7994 398.025 41.1359 398.025 44.0254C398.025 46.0234 397.406 47.7736 396.167 49.2762C394.946 50.7788 393.36 51.7365 391.412 52.1493V52.5951C393.806 52.8263 395.738 53.7097 397.208 55.2453C398.677 56.7643 399.412 58.7127 399.412 61.0905C399.412 64.2442 398.058 66.8366 395.35 68.8675C392.642 70.882 389.224 71.8892 385.096 71.8892C381.001 71.8892 377.674 70.8737 375.115 68.8428C372.555 66.8118 371.193 64.1121 371.028 60.7437H378.186C378.302 62.2463 378.987 63.4434 380.242 64.335C381.497 65.2102 383.148 65.6477 385.195 65.6477C387.16 65.6477 388.737 65.1771 389.926 64.236C391.131 63.2783 391.734 62.0399 391.734 60.5208C391.734 59.0678 391.148 57.9284 389.975 57.1028C388.803 56.2607 387.16 55.8397 385.047 55.8397H380.242Z" fill="#37405B"/>
<path d="M95.4739 30.4575H93.5991V27.2579H80.7445V11.0578H82.7653V25.4392H91.4323V11.0578H93.4531V25.4392H95.4739V30.4575Z" fill="#617A5B"/>
<path d="M115.764 25.4392V27.2579H105.727V11.0578H115.764V12.8765H107.748V18.0745H115.348V19.8708H107.748V25.4392H115.764Z" fill="#617A5B"/>
<path d="M139.901 27.2579H137.88V19.882H128.989V27.2579H126.968V11.0578H128.989V18.0633H137.88V11.0578H139.901V27.2579Z" fill="#617A5B"/>
<path d="M157.766 27.2579H155.745V12.8765H150.524V11.0578H162.986V12.8765H157.766V27.2579Z" fill="#617A5B"/>
<path d="M173.645 11.0578H179.763C181.298 11.0578 182.544 11.548 183.502 12.5285C184.467 13.5015 184.95 14.7589 184.95 16.3007C184.95 17.8125 184.46 19.055 183.479 20.0279C182.507 20.9934 181.26 21.4762 179.741 21.4762H175.666V27.2579H173.645V11.0578ZM175.666 12.8541V19.6799H179.236C180.388 19.6799 181.283 19.3843 181.919 18.793C182.555 18.2017 182.873 17.371 182.873 16.3007C182.873 15.1855 182.559 14.3323 181.93 13.741C181.309 13.1497 180.411 12.8541 179.236 12.8541H175.666Z" fill="#617A5B"/>
<path fill-rule="evenodd" clip-rule="evenodd" d="M72.4059 11.0912L67.1524 29.3841H55.965V60.943C55.965 62.0013 56.532 63.0217 57.3257 63.891L54.5666 73.5288C52.8658 73.5666 51.1273 73.5666 49.3509 73.6044C47.0076 73.5666 45.1178 73.0752 43.2659 72.4705C39.7887 71.3366 36.7651 68.9556 35.9336 65.3272C35.5179 63.6642 35.9714 53.7997 35.9714 51.1918C35.9714 48.8108 35.9714 46.4297 35.9714 44.0486C35.9714 42.7257 36.1226 41.8564 36.1226 40.5714V29.8376C19.6061 29.8376 15.9778 30.1778 0.06604 33.6171C1.31328 32.1053 4.82823 27.9856 5.54633 27.2675L8.34317 24.0549C10.8754 21.3337 13.9369 17.6676 16.5825 14.7573L17.5274 13.6613C19.6061 11.2424 19.0392 11.3558 21.1179 11.3558C38.2013 11.2424 55.2847 11.129 72.4059 11.0912Z" fill="#37405B"/>
<path d="M75.0138 0.886536L51.6186 84.1114" stroke="#617A5B" stroke-width="1.27974"/>
</svg>
