<svg width="56" height="63" viewBox="0 0 56 63" fill="none" xmlns="http://www.w3.org/2000/svg">
<path fill-rule="evenodd" clip-rule="evenodd" d="M53.375 8.625L49.5131 22.0473H41.2129V45.1222C41.2129 45.8647 41.674 46.6072 42.2504 47.2355L40.233 54.3179C38.9073 54.3179 37.6392 54.3179 36.3711 54.375C34.6419 54.3179 33.2009 53.9752 31.8751 53.5183C29.2813 52.7186 27.091 50.948 26.4569 48.3207C26.1687 47.0641 26.4569 39.8675 26.4569 37.9827C26.4569 36.2121 26.4569 34.4986 26.4569 32.7851C26.4569 31.757 26.5722 31.1287 26.5722 30.2149V22.3329C14.4101 22.3329 11.701 22.6184 0 25.1316C0.922246 23.9892 3.51606 21.0192 4.03483 20.448L6.10988 18.1063C7.95437 16.1643 10.26 13.4228 12.1621 11.3095L12.8538 10.5098C14.4101 8.73923 14.0066 8.85346 15.5053 8.85346C28.1285 8.73923 40.7518 8.68212 53.375 8.625Z" fill="#37405B"/>
<path d="M55.0694 1L37.7014 62" stroke="#617A5B" stroke-width="1.27977"/>
</svg>
