<svg width="81" height="55" viewBox="0 0 81 55" fill="none" xmlns="http://www.w3.org/2000/svg">
<path fill-rule="evenodd" clip-rule="evenodd" d="M0 22.0319C12.9584 19.2114 15.9119 18.9187 29.3759 18.9187V27.7794C29.3759 28.8437 29.2429 29.5356 29.2429 30.6531C29.2429 32.6222 29.2429 34.5646 29.2429 36.5336C29.2429 38.6623 28.8703 46.8045 29.2163 48.1882C29.9081 51.1684 32.3561 53.1374 35.2032 54.0687C36.6933 54.5477 38.2366 54.9734 40.1524 55C44.596 54.9468 48.88 54.867 53.2704 54.8137C55.8249 54.7871 57.7407 54.255 61.3861 50.583C61.8118 50.1572 61.6788 50.2903 63.1422 48.6405C59.2308 50.4765 56.3304 51.1151 51.9666 50.1306C51.0885 49.9178 49.7581 49.4122 49.1195 49.0131C47.7358 48.1882 45.5273 46.432 45.5273 44.5694V18.5462H55.5056C56.7828 18.5462 59.0179 18.014 59.9226 17.5883C63.1422 16.1514 66.7876 12.2666 69.6081 9.79197C73.1205 6.59894 76.7658 3.29947 80.1717 0C73.626 3.45912 70.1669 3.13982 63.1422 3.45912C47.8157 3.45912 32.4891 3.56555 17.1359 3.6986C15.4596 3.6986 15.9119 3.59216 14.2356 5.58781L13.464 6.4925C11.3087 8.88728 8.80745 11.9207 6.75859 14.1558L4.49686 16.79C3.88486 17.402 1.03774 20.7813 0 22.0319Z" fill="#FEFEFE"/>
</svg>
